<svg xmlns="http://www.w3.org/2000/svg" viewBox="0 0 180 180" width="180" height="180" role="img" aria-label="SlopStopper">
  <rect width="180" height="180" rx="36" fill="#FFD9B8"/>
  <!-- Stoppy face, centred -->
  <g transform="translate(20, 18) scale(0.6)">
    <path d="M40 130 C40 75, 80 50, 120 50 C160 50, 200 75, 200 130 C200 180, 165 210, 120 210 C75 210, 40 180, 40 130 Z"
          fill="#FBF5EC" stroke="#2A2118" stroke-width="8" stroke-linejoin="round"/>
    <rect x="92" y="58" width="22" height="8" rx="2" fill="#F5C24C" stroke="#2A2118" stroke-width="3"/>
    <circle cx="92" cy="130" r="14" fill="#2A2118"/>
    <circle cx="148" cy="130" r="14" fill="#2A2118"/>
    <circle cx="96" cy="125" r="4" fill="#FBF5EC"/>
    <circle cx="152" cy="125" r="4" fill="#FBF5EC"/>
    <path d="M100 165 Q120 182, 140 165" stroke="#2A2118" stroke-width="6" stroke-linecap="round" fill="none"/>
    <circle cx="180" cy="155" r="9" fill="#FBF5EC" stroke="#2A2118" stroke-width="5"/>
    <circle cx="60" cy="155" r="9" fill="#FBF5EC" stroke="#2A2118" stroke-width="5"/>
    <polygon points="178,90 218,90 232,118 218,146 178,146 164,118" fill="#E8512B" stroke="#2A2118" stroke-width="6" stroke-linejoin="round"/>
  </g>
</svg>
